<svg version="1.1" xmlns="http://www.w3.org/2000/svg" viewBox="0 0 756.7042236328125 646.7713623046875" width="1513.408447265625" height="1293.542724609375">
  <!-- svg-source:excalidraw -->
  
  <defs>
    <style class="style-fonts">
      @font-face {
        font-family: "Virgil";
        src: url(".//dist/excalidraw-assets/Virgil.woff2");
      }
      @font-face {
        font-family: "Cascadia";
        src: url(".//dist/excalidraw-assets/Cascadia.woff2");
      }
    </style>
  </defs>
  <rect x="0" y="0" width="756.7042236328125" height="646.7713623046875" fill="#ffffff"></rect><g stroke-linecap="round" transform="translate(10.30523681640625 488.40618896484375) rotate(0 124.1571044921875 74.18258666992188)"><path d="M32 0 M32 0 C100.49 -1.83, 173.4 -3.1, 216.31 0 M32 0 C89.25 -2.23, 146.73 -0.8, 216.31 0 M216.31 0 C237.84 0.37, 247.01 8.94, 248.31 32 M216.31 0 C236.08 1.26, 250.45 9.58, 248.31 32 M248.31 32 C249.82 53.09, 250.29 78.93, 248.31 116.37 M248.31 32 C249.45 65.67, 247.75 97.48, 248.31 116.37 M248.31 116.37 C247.45 136.23, 237.23 147.73, 216.31 148.37 M248.31 116.37 C247.9 136.73, 238.2 147.82, 216.31 148.37 M216.31 148.37 C175.78 148.73, 133.4 147.9, 32 148.37 M216.31 148.37 C166.75 146.93, 119.15 147.39, 32 148.37 M32 148.37 C9.32 149.09, -0.5 136.74, 0 116.37 M32 148.37 C8.39 147.68, -0.74 139.04, 0 116.37 M0 116.37 C1.93 91.71, 2.5 65.61, 0 32 M0 116.37 C0.23 92.6, 1.56 67.43, 0 32 M0 32 C-0.65 9.2, 11.96 1.66, 32 0 M0 32 C0.41 8.84, 11.11 -2.1, 32 0" stroke="#000000" stroke-width="1" fill="none"></path></g><g transform="translate(84.46234130859375 550.8387756347656) rotate(0 50 11.5)"><text x="50" y="17" font-family="Virgil, Segoe UI Emoji" font-size="20px" fill="#000000" text-anchor="middle" style="white-space: pre;" direction="ltr">Component</text></g><g stroke-linecap="round" transform="translate(10 12.124969482421875) rotate(0 124.1571044921875 74.18258666992188)"><path d="M32 0 M32 0 C68.06 2.59, 108.21 2.03, 216.31 0 M32 0 C103.34 1.7, 174.52 0.74, 216.31 0 M216.31 0 C238.56 -1.4, 249.34 9.07, 248.31 32 M216.31 0 C239.7 1.23, 248.73 8.89, 248.31 32 M248.31 32 C248.33 59.2, 249.19 86.64, 248.31 116.37 M248.31 32 C248.83 63.93, 247.92 97.51, 248.31 116.37 M248.31 116.37 C247.34 139.34, 238.88 147.58, 216.31 148.37 M248.31 116.37 C246.96 136.34, 237 147.81, 216.31 148.37 M216.31 148.37 C144.68 150.39, 76.99 148.76, 32 148.37 M216.31 148.37 C168.5 147.68, 119.91 146.88, 32 148.37 M32 148.37 C9.12 147.54, 0.34 138.89, 0 116.37 M32 148.37 C12.09 149.97, 2.28 135.86, 0 116.37 M0 116.37 C-0.97 89.8, 1.04 64.09, 0 32 M0 116.37 C-0.18 91.13, -0.08 68.01, 0 32 M0 32 C-1.72 9.4, 11.98 1.96, 32 0 M0 32 C-0.64 12.92, 10 -0.92, 32 0" stroke="#000000" stroke-width="1" fill="none"></path></g><g transform="translate(103.6571044921875 74.55755615234375) rotate(0 30.5 11.5)"><text x="30.5" y="17" font-family="Virgil, Segoe UI Emoji" font-size="20px" fill="#000000" text-anchor="middle" style="white-space: pre;" direction="ltr">Action</text></g><g stroke-linecap="round" transform="translate(498.0848388671875 10) rotate(0 124.1571044921875 74.18258666992188)"><path d="M32 0 M32 0 C83.53 -1.64, 133.94 -0.97, 216.31 0 M32 0 C89.14 -1.21, 145.42 0.3, 216.31 0 M216.31 0 C239.61 -0.55, 250.28 10.09, 248.31 32 M216.31 0 C236.72 1.02, 249.86 9.07, 248.31 32 M248.31 32 C248.47 59.35, 249.66 82.73, 248.31 116.37 M248.31 32 C247.12 53.89, 247.69 77.98, 248.31 116.37 M248.31 116.37 C249.22 138.66, 236.87 149.83, 216.31 148.37 M248.31 116.37 C249.91 138.61, 237.85 148.83, 216.31 148.37 M216.31 148.37 C150.14 150.24, 80.47 146.97, 32 148.37 M216.31 148.37 C152.81 147.65, 90.57 148.23, 32 148.37 M32 148.37 C9.77 149.79, -0.59 138.85, 0 116.37 M32 148.37 C10.42 146.08, -1.83 138.68, 0 116.37 M0 116.37 C1.16 84.43, -1.83 55.19, 0 32 M0 116.37 C-0.9 95.74, 0.4 78.06, 0 32 M0 32 C1.26 12.38, 10.84 1.93, 32 0 M0 32 C-1.81 10.83, 12.9 -0.87, 32 0" stroke="#000000" stroke-width="1" fill="none"></path></g><g transform="translate(582.741943359375 72.43258666992188) rotate(0 39.5 11.5)"><text x="39.5" y="17" font-family="Virgil, Segoe UI Emoji" font-size="20px" fill="#000000" text-anchor="middle" style="white-space: pre;" direction="ltr">Reducer</text></g><g stroke-linecap="round" transform="translate(498.0848388671875 260.5984191894531) rotate(0 124.1571044921875 74.18258666992188)"><path d="M7.86 8.16 C7.86 8.16, 7.86 8.16, 7.86 8.16 M7.86 8.16 C7.86 8.16, 7.86 8.16, 7.86 8.16 M3.66 19.09 C6.92 14.17, 7.79 11.8, 18.1 2.48 M3.66 19.09 C7.23 15.2, 11.2 9.28, 18.1 2.48 M2.75 26.24 C7.34 22.14, 13.32 14.33, 24.4 1.33 M2.75 26.24 C7.69 21.49, 11.18 15.08, 24.4 1.33 M2.48 32.64 C14.93 19.93, 26.19 5.49, 30.7 0.18 M2.48 32.64 C11.57 23.58, 20.2 13.47, 30.7 0.18 M2.88 38.28 C9.14 31.9, 18.29 22.97, 34.37 2.05 M2.88 38.28 C9.51 29.46, 16.92 21.32, 34.37 2.05 M2.62 44.68 C9.85 36.56, 21.33 25.84, 39.36 2.41 M2.62 44.68 C12.24 32.23, 23.68 20.42, 39.36 2.41 M2.36 51.07 C9.95 40.45, 20.64 30.54, 45 2.02 M2.36 51.07 C16.68 34.31, 30.9 16.71, 45 2.02 M2.75 56.72 C17.93 40.84, 31.62 27.48, 49.99 2.38 M2.75 56.72 C20.97 35.61, 41.35 12.7, 49.99 2.38 M2.49 63.11 C22.31 43.79, 39.65 21.89, 55.63 1.98 M2.49 63.11 C21.91 41.25, 42.21 18.99, 55.63 1.98 M2.88 68.76 C15.18 53.11, 27.37 39.34, 60.62 2.34 M2.88 68.76 C22.29 47.44, 40.63 25.07, 60.62 2.34 M2.62 75.16 C15.68 59.7, 29.79 45.75, 66.26 1.95 M2.62 75.16 C25.48 49.53, 46.14 25.8, 66.26 1.95 M2.36 81.55 C18.15 64.86, 31.96 45.13, 71.25 2.31 M2.36 81.55 C21.45 59.35, 40.08 38.19, 71.25 2.31 M2.76 87.2 C28.87 58.49, 53.7 32.71, 76.89 1.91 M2.76 87.2 C30.3 56.19, 57.75 25.04, 76.89 1.91 M2.49 93.59 C21.58 72.57, 41.69 49.33, 81.88 2.27 M2.49 93.59 C24.9 66.4, 48.09 40.13, 81.88 2.27 M2.89 99.24 C27.64 71.96, 47.94 44.94, 87.52 1.88 M2.89 99.24 C34.45 61.85, 67.85 24.5, 87.52 1.88 M2.63 105.64 C33.23 74.32, 61.3 40.68, 92.51 2.24 M2.63 105.64 C37.78 65.93, 74.2 25.04, 92.51 2.24 M2.37 112.03 C32.1 79.54, 61.35 42.68, 98.15 1.85 M2.37 112.03 C35.85 73.14, 71.92 33.38, 98.15 1.85 M2.76 117.68 C26.94 92.18, 51.81 66.03, 103.14 2.21 M2.76 117.68 C24.4 93.82, 43.86 70.29, 103.14 2.21 M1.84 124.83 C40.07 77.7, 84.01 31.74, 108.78 1.81 M1.84 124.83 C40.86 80.92, 80.35 35.49, 108.78 1.81 M2.89 129.72 C38.94 88.33, 77.91 46.93, 113.77 2.17 M2.89 129.72 C39.57 86.2, 77.42 41.52, 113.77 2.17 M4.6 133.85 C39.44 93.12, 74.19 56.03, 119.41 1.78 M4.6 133.85 C29.53 104.06, 55.49 73.68, 119.41 1.78 M6.31 137.98 C34.63 106.32, 62.67 76.2, 124.4 2.14 M6.31 137.98 C34.4 108.72, 60.02 76.94, 124.4 2.14 M9.33 140.61 C52.76 90.43, 97.27 41.45, 130.04 1.74 M9.33 140.61 C47.93 97.9, 85.96 54.33, 130.04 1.74 M12.35 143.23 C52.72 95.67, 92.33 49.65, 135.03 2.1 M12.35 143.23 C40.1 109.84, 69.11 77.96, 135.03 2.1 M15.36 145.86 C62.33 95.27, 104.58 40.73, 140.67 1.71 M15.36 145.86 C59.12 95.56, 103.27 46.07, 140.67 1.71 M19.04 147.73 C58.52 101.96, 99.77 55.64, 145.66 2.07 M19.04 147.73 C45.33 117.96, 72.22 86.7, 145.66 2.07 M23.37 148.84 C64.09 103.07, 105.28 52.36, 150.65 2.43 M23.37 148.84 C70.7 92.55, 120.06 34.44, 150.65 2.43 M27.04 150.71 C60.5 115.45, 91.52 78.15, 156.29 2.03 M27.04 150.71 C68.35 105.34, 108.14 59.23, 156.29 2.03 M33.34 149.56 C63.63 115.73, 93.84 78.73, 161.28 2.39 M33.34 149.56 C66.08 112.25, 96.61 74.77, 161.28 2.39 M38.33 149.92 C71.58 113.26, 104.83 72.06, 166.92 2 M38.33 149.92 C84.61 98.34, 129.74 45.68, 166.92 2 M43.97 149.53 C77.77 110.71, 112.23 69.18, 171.91 2.36 M43.97 149.53 C78.17 111.65, 112.48 72.68, 171.91 2.36 M48.96 149.89 C85.39 107.53, 117.87 67.11, 177.55 1.96 M48.96 149.89 C91.56 104.07, 130.51 57.34, 177.55 1.96 M54.6 149.49 C98.14 96.38, 145.54 44.81, 182.54 2.32 M54.6 149.49 C99.57 96.9, 145.72 41.96, 182.54 2.32 M59.59 149.85 C96.08 107.24, 137.27 60.56, 188.18 1.93 M59.59 149.85 C111.67 91.04, 161.8 33.45, 188.18 1.93 M65.23 149.46 C96.15 113.78, 127.66 77.69, 193.17 2.29 M65.23 149.46 C113.16 96.2, 157.54 43.56, 193.17 2.29 M70.22 149.82 C110.23 105.01, 146.66 61.14, 198.81 1.9 M70.22 149.82 C115.08 99.86, 158.85 47.92, 198.81 1.9 M75.86 149.42 C105.66 117.75, 133.71 84.76, 203.8 2.26 M75.86 149.42 C109.88 110.05, 144.68 71.58, 203.8 2.26 M80.85 149.78 C127.6 96.75, 172.09 42.06, 209.44 1.86 M80.85 149.78 C129.23 95.69, 175.99 40.78, 209.44 1.86 M86.49 149.39 C136.92 91.12, 189.12 32.11, 216.39 -0.04 M86.49 149.39 C136.41 91.46, 186.66 33.73, 216.39 -0.04 M91.48 149.75 C131.55 106.28, 166.26 61.62, 221.38 0.32 M91.48 149.75 C119.08 118.96, 147.36 87.85, 221.38 0.32 M97.12 149.35 C146.51 92.04, 197.46 30.92, 225.06 2.19 M97.12 149.35 C128.29 116.14, 156.38 81.87, 225.06 2.19 M102.11 149.71 C133.43 116.16, 163.01 82.57, 229.39 3.3 M102.11 149.71 C136.14 113.26, 169.66 73.74, 229.39 3.3 M107.75 149.32 C150.1 102.71, 187.34 57.58, 233.72 4.42 M107.75 149.32 C132.18 120.9, 159.07 91.89, 233.72 4.42 M112.74 149.68 C145.07 110.22, 179.47 74.11, 237.39 6.29 M112.74 149.68 C144.43 114.49, 174.51 79.4, 237.39 6.29 M118.38 149.29 C162.4 99.9, 203.38 52, 240.41 8.91 M118.38 149.29 C154.54 108.58, 189.29 68.45, 240.41 8.91 M123.37 149.65 C169.21 98.86, 216.86 45.56, 243.43 11.53 M123.37 149.65 C166.14 100.76, 207.16 52.26, 243.43 11.53 M129.01 149.25 C166.51 104.47, 204.07 63.49, 246.45 14.16 M129.01 149.25 C174.15 95.47, 220.19 43.2, 246.45 14.16 M134 149.61 C169.49 105.07, 207.26 64.62, 247.5 19.05 M134 149.61 C167.64 109.02, 204.28 69.57, 247.5 19.05 M139.64 149.22 C182.05 99.27, 221.82 52.24, 248.55 23.93 M139.64 149.22 C181.23 101.59, 222.64 53.35, 248.55 23.93 M144.63 149.58 C182.19 105.99, 215.86 64.02, 248.95 29.58 M144.63 149.58 C173.14 115.18, 201.43 82.37, 248.95 29.58 M150.27 149.18 C183.87 108.3, 219.31 70.51, 250.65 33.71 M150.27 149.18 C176.59 119.3, 200.9 89.1, 250.65 33.71 M155.26 149.54 C179.11 119.43, 203.71 91.84, 250.39 40.11 M155.26 149.54 C190.4 107.68, 228.66 66.73, 250.39 40.11 M160.25 149.9 C186.52 116.65, 217.64 83.59, 250.79 45.75 M160.25 149.9 C193.94 111.02, 227.97 71.62, 250.79 45.75 M165.89 149.51 C196.11 116.09, 225.43 80.54, 250.52 52.15 M165.89 149.51 C198.99 112.01, 232.13 74.87, 250.52 52.15 M170.88 149.87 C189.6 130.73, 208.4 107.28, 250.26 58.55 M170.88 149.87 C188.6 128.67, 205.83 107.3, 250.26 58.55 M176.52 149.47 C199.5 122.56, 223.59 97.63, 250.66 64.19 M176.52 149.47 C205.59 117.04, 233.92 84.14, 250.66 64.19 M181.51 149.83 C194.16 135.6, 211.15 119.76, 250.4 70.59 M181.51 149.83 C199.72 129.62, 218.28 108.22, 250.4 70.59 M187.15 149.44 C206.46 128.26, 226.29 108.2, 250.79 76.23 M187.15 149.44 C210.41 123.4, 231.43 98.09, 250.79 76.23 M192.14 149.8 C209.39 130.83, 230.21 109.48, 250.53 82.63 M192.14 149.8 C207.56 133.18, 222.98 114.96, 250.53 82.63 M197.78 149.4 C209.54 135.32, 221.61 120.26, 250.27 89.03 M197.78 149.4 C214.91 127.9, 233.28 106.97, 250.27 89.03 M202.77 149.76 C211.99 139.39, 221.53 128.22, 250.66 94.67 M202.77 149.76 C219.8 130.33, 236.67 109.68, 250.66 94.67 M208.41 149.37 C223.93 132.96, 238.23 116.62, 250.4 101.07 M208.41 149.37 C224.23 132.92, 238.34 115.67, 250.4 101.07 M213.4 149.73 C224.51 132.77, 240.14 120.08, 250.79 106.71 M213.4 149.73 C221.55 140.25, 230.54 131.6, 250.79 106.71 M218.39 150.09 C230.72 133.6, 243.19 122.3, 250.53 113.11 M218.39 150.09 C225.29 140.85, 233.91 132.31, 250.53 113.11 M224.69 148.94 C233.69 137.99, 240.96 127.5, 250.93 118.75 M224.69 148.94 C231.93 140.34, 240.06 130.48, 250.93 118.75 M231.64 147.04 C238.68 140.12, 242.77 135.86, 250.01 125.9 M231.64 147.04 C237.68 139.89, 243.26 133.61, 250.01 125.9" stroke="#868e96" stroke-width="0.5" fill="none"></path><path d="M32 0 M32 0 C72.49 0.02, 113.64 3.38, 216.31 0 M32 0 C91.16 -0.84, 151.22 -1.06, 216.31 0 M216.31 0 C237.92 1.99, 249.41 9.96, 248.31 32 M216.31 0 C236.28 -0.27, 248.21 11.09, 248.31 32 M248.31 32 C246.62 63.18, 247.42 90.96, 248.31 116.37 M248.31 32 C248.39 62.47, 248.47 91.36, 248.31 116.37 M248.31 116.37 C250.02 137.22, 239.47 146.53, 216.31 148.37 M248.31 116.37 C246.44 136.98, 238.75 149.29, 216.31 148.37 M216.31 148.37 C178.12 147.07, 140.59 145.36, 32 148.37 M216.31 148.37 C147.64 146.89, 77.08 146.76, 32 148.37 M32 148.37 C9.3 148.72, -1.99 137.42, 0 116.37 M32 148.37 C11.81 148.4, 0.67 138.04, 0 116.37 M0 116.37 C0.6 92.89, 2.16 69.33, 0 32 M0 116.37 C0.21 83.82, -0.41 52.3, 0 32 M0 32 C1.2 9.6, 9.45 -1.03, 32 0 M0 32 C0.21 9.37, 10.8 1.98, 32 0" stroke="#000000" stroke-width="1" fill="none"></path></g><g transform="translate(553.241943359375 323.031005859375) rotate(0 69 11.5)"><text x="69" y="17" font-family="Virgil, Segoe UI Emoji" font-size="20px" fill="#000000" text-anchor="middle" style="white-space: pre;" direction="ltr">Central Store</text></g><g stroke-linecap="round" transform="translate(498.3900146484375 487.2010192871094) rotate(0 124.1571044921875 74.18258666992188)"><path d="M32 0 M32 0 C96.45 2.55, 166.76 1.98, 216.31 0 M32 0 C102.31 -1.71, 175.17 -2.16, 216.31 0 M216.31 0 C239.1 1.61, 249.71 12, 248.31 32 M216.31 0 C236.11 -1.92, 247.66 9.08, 248.31 32 M248.31 32 C246.91 66.55, 250.4 98.95, 248.31 116.37 M248.31 32 C247.84 52.69, 248.38 73.31, 248.31 116.37 M248.31 116.37 C249.81 139.46, 238.1 147.94, 216.31 148.37 M248.31 116.37 C248.62 138.83, 236.36 147.22, 216.31 148.37 M216.31 148.37 C149.55 146.54, 80.04 146.97, 32 148.37 M216.31 148.37 C164.23 150.1, 111.23 149.84, 32 148.37 M32 148.37 C8.92 148.41, -0.23 138.41, 0 116.37 M32 148.37 C9.35 150.36, -0.53 139.75, 0 116.37 M0 116.37 C0.92 81.52, 0.76 51.73, 0 32 M0 116.37 C-0.4 97.37, 0.53 76.89, 0 32 M0 32 C1.13 11.93, 9.58 1.96, 32 0 M0 32 C-0.49 12.64, 12.47 1.84, 32 0" stroke="#000000" stroke-width="1" fill="none"></path></g><g transform="translate(564.547119140625 549.6336059570312) rotate(0 58 11.5)"><text x="58" y="17" font-family="Virgil, Segoe UI Emoji" font-size="20px" fill="#000000" text-anchor="middle" style="white-space: pre;" direction="ltr">Subscription</text></g><g mask="url(#mask-t6Z85XsDAj4VbwF_kXMfq)" stroke-linecap="round"><g transform="translate(134.22362756751397 487.40618896484375) rotate(0 -1.3255495331451925 -162.65458919666705)"><path d="M0.63 0.24 C0.43 -54, -1.66 -271.29, -2.28 -325.55 M-0.5 -0.68 C-0.76 -54.81, -3.25 -270.65, -3.28 -324.62" stroke="#000000" stroke-width="1" fill="none"></path></g><g transform="translate(134.22362756751397 487.40618896484375) rotate(0 -1.3255495331451925 -162.65458919666705)"><path d="M7.57 -296.66 C3.1 -303.78, 1.29 -309.44, -4.83 -324.71 M7.79 -297.11 C3.51 -306.74, -0.68 -316.33, -2.6 -325.58" stroke="#000000" stroke-width="1" fill="none"></path></g><g transform="translate(134.22362756751397 487.40618896484375) rotate(0 -1.3255495331451925 -162.65458919666705)"><path d="M-12.95 -296.52 C-13.19 -303.78, -10.76 -309.46, -4.83 -324.71 M-12.73 -296.97 C-9.43 -306.81, -6.04 -316.45, -2.6 -325.58" stroke="#000000" stroke-width="1" fill="none"></path></g></g><mask id="mask-t6Z85XsDAj4VbwF_kXMfq"><rect x="0" y="0" fill="#fff" width="236.40748468894742" height="911.7927551269531"></rect><rect x="89.63169900679725" y="313.71290588378906" fill="#000" width="87" height="23" opacity="1"></rect></mask><g transform="translate(89.63169900679725 313.71290588378906) rotate(0 43.26637902757153 11.03869388438764)"><text x="43.5" y="17" font-family="Virgil, Segoe UI Emoji" font-size="20px" fill="#000000" text-anchor="middle" style="white-space: pre;" direction="ltr">Dispatch</text></g><g mask="url(#mask-pEWj4Kmt2DCFiRm1z26ae)" stroke-linecap="round"><g transform="translate(259.457275390625 81.01314822201948) rotate(0 118.78027121211403 0.6836180351884309)"><path d="M-1.09 -0.55 C38.25 -0.65, 196.43 -0.01, 236.3 0.36 M0.54 1.78 C40.25 1.78, 199.09 2.1, 238.65 1.79" stroke="#000000" stroke-width="1" fill="none"></path></g><g transform="translate(259.457275390625 81.01314822201948) rotate(0 118.78027121211403 0.6836180351884309)"><path d="M209.57 10.98 C219.12 10.93, 230.38 5.39, 237.2 2.28 M209.78 11.44 C218.06 8.59, 224.88 5.92, 238.85 2.29" stroke="#000000" stroke-width="1" fill="none"></path></g><g transform="translate(259.457275390625 81.01314822201948) rotate(0 118.78027121211403 0.6836180351884309)"><path d="M209.52 -9.54 C219.25 -2.99, 230.52 -1.94, 237.2 2.28 M209.73 -9.08 C218.16 -6.73, 225 -4.2, 238.85 2.29" stroke="#000000" stroke-width="1" fill="none"></path></g></g><mask id="mask-pEWj4Kmt2DCFiRm1z26ae"><rect x="0" y="0" fill="#fff" width="596.4321899414062" height="181.57252232688802"></rect><rect x="347.9447326660156" y="69.79283527445375" fill="#000" width="60" height="23" opacity="1"></rect></mask><g transform="translate(347.9447326660156 69.79283527445375) rotate(0 30.292813936723405 11.903930982754162)"><text x="30" y="17" font-family="Virgil, Segoe UI Emoji" font-size="20px" fill="#000000" text-anchor="middle" style="white-space: pre;" direction="ltr">Reach</text></g><g mask="url(#mask-IH4S-7QgD14LQhgC0CXNm)" stroke-linecap="round"><g transform="translate(619.4797973632812 158.20416259765625) rotate(0 0.48587424053118866 47.274204554781306)"><path d="M0.78 -0.78 C1.12 15.05, 1.38 79.57, 1.17 95.33 M-0.27 1.42 C0.08 16.91, 0.35 78.17, 0.72 93.73" stroke="#000000" stroke-width="1" fill="none"></path></g><g transform="translate(619.4797973632812 158.20416259765625) rotate(0 0.48587424053118866 47.274204554781306)"><path d="M-11.21 67.28 C-5.78 70.67, -6.04 76.94, -1.17 92.61 M-9.37 65.17 C-7.69 75.19, -2.84 83.66, 0.29 94.55" stroke="#000000" stroke-width="1" fill="none"></path></g><g transform="translate(619.4797973632812 158.20416259765625) rotate(0 0.48587424053118866 47.274204554781306)"><path d="M9.31 67.01 C10.13 70.59, 5.27 76.92, -1.17 92.61 M11.15 64.9 C6.5 74.86, 5.03 83.41, 0.29 94.55" stroke="#000000" stroke-width="1" fill="none"></path></g></g><mask id="mask-IH4S-7QgD14LQhgC0CXNm"><rect x="0" y="0" fill="#fff" width="719.683619454235" height="352.5381774902344"></rect><rect x="583.081708408758" y="193.8711700439453" fill="#000" width="73" height="23" opacity="1"></rect></mask><g transform="translate(583.0817084087581 193.8711700439453) rotate(0 36.88396319505432 11.607197108492244)"><text x="36.5" y="17" font-family="Virgil, Segoe UI Emoji" font-size="20px" fill="#000000" text-anchor="middle" style="white-space: pre;" direction="ltr">Update</text></g><g mask="url(#mask-Yu6LQ0U647OpAxE5WCE5P)" stroke-linecap="round"><g transform="translate(620.1494864346432 414.7725830078125) rotate(0 1.3647735364114055 34.21355153696612)"><path d="M-0.39 -0.02 C-0.03 11.19, 2.63 56.51, 3.12 67.87 M1.61 -1.07 C1.72 10.3, 2.19 58.31, 2.16 69.5" stroke="#000000" stroke-width="1" fill="none"></path></g><g transform="translate(620.1494864346432 414.7725830078125) rotate(0 1.3647735364114055 34.21355153696612)"><path d="M-8.26 41.33 C-3.84 51.1, 0.56 63.74, 3.54 69.59 M-8.76 41.26 C-5.53 48.53, -2.97 58.73, 2.88 70.37" stroke="#000000" stroke-width="1" fill="none"></path></g><g transform="translate(620.1494864346432 414.7725830078125) rotate(0 1.3647735364114055 34.21355153696612)"><path d="M12.26 41.23 C8.88 50.97, 5.47 63.65, 3.54 69.59 M11.76 41.16 C8.97 48.62, 5.52 58.85, 2.88 70.37" stroke="#000000" stroke-width="1" fill="none"></path></g></g><mask id="mask-Yu6LQ0U647OpAxE5WCE5P"><rect x="0" y="0" fill="#fff" width="723.2857339926657" height="582.4625244140625"></rect><rect x="586.2176102136546" y="437.1175537109375" fill="#000" width="71" height="23" opacity="1"></rect></mask><g transform="translate(586.2176102136544 437.1175537109375) rotate(0 35.29664975740019 11.868580833841122)"><text x="35.5" y="17" font-family="Virgil, Segoe UI Emoji" font-size="20px" fill="#000000" text-anchor="middle" style="white-space: pre;" direction="ltr">Trigger</text></g><g mask="url(#mask-iBk-jUu9abB3S9C49oE0R)" stroke-linecap="round"><g transform="translate(492.350341796875 560.9716913249744) rotate(0 -113.35717328851109 -0.034274202945596244)"><path d="M0.54 -1.06 C-37.35 -0.74, -188.81 0.7, -226.84 0.9 M-0.63 0.99 C-38.64 1.1, -189.3 -0.75, -227.26 -0.65" stroke="#000000" stroke-width="1" fill="none"></path></g><g transform="translate(492.350341796875 560.9716913249744) rotate(0 -113.35717328851109 -0.034274202945596244)"><path d="M-200.78 -9.06 C-207.05 -6.84, -218.12 -4.98, -229.01 -2.21 M-199.77 -11.12 C-208.59 -7.2, -219.71 -3.42, -227.12 0.12" stroke="#000000" stroke-width="1" fill="none"></path></g><g transform="translate(492.350341796875 560.9716913249744) rotate(0 -113.35717328851109 -0.034274202945596244)"><path d="M-200.9 11.46 C-206.95 6.58, -217.98 1.34, -229.01 -2.21 M-199.89 9.4 C-208.85 5.57, -219.93 1.6, -227.12 0.12" stroke="#000000" stroke-width="1" fill="none"></path></g></g><mask id="mask-iBk-jUu9abB3S9C49oE0R"><rect x="0" y="0" fill="#fff" width="820.206298828125" height="661.1631695705807"></rect><rect x="348.42236328125" y="526.3759522021711" fill="#000" width="60" height="69" opacity="1"></rect></mask><g transform="translate(348.42236328125 526.3759522021712) rotate(0 30.570805227113908 34.56146491985754)"><text x="30" y="17" font-family="Virgil, Segoe UI Emoji" font-size="20px" fill="#000000" text-anchor="middle" style="white-space: pre;" direction="ltr">State</text><text x="30" y="40" font-family="Virgil, Segoe UI Emoji" font-size="20px" fill="#000000" text-anchor="middle" style="white-space: pre;" direction="ltr">to</text><text x="30" y="63" font-family="Virgil, Segoe UI Emoji" font-size="20px" fill="#000000" text-anchor="middle" style="white-space: pre;" direction="ltr">Props</text></g></svg>