<svg version="1.1" xmlns="http://www.w3.org/2000/svg" viewBox="0 0 1733.6348233307704 585.602292074914" width="3467.2696466615407" height="1171.204584149828">
  <!-- svg-source:excalidraw -->
  
  <defs>
    <style class="style-fonts">
      @font-face {
        font-family: "Virgil";
        src: url(".//dist/excalidraw-assets/Virgil.woff2");
      }
      @font-face {
        font-family: "Cascadia";
        src: url(".//dist/excalidraw-assets/Cascadia.woff2");
      }
    </style>
  </defs>
  <rect x="0" y="0" width="1733.6348233307704" height="585.602292074914" fill="#ffffff"></rect><g stroke-linecap="round" transform="translate(10 170.4740404503504) rotate(0 140.34107971191406 62.045623779296875)"><path d="M31.02 0 M31.02 0 C82.67 -0.28, 136.31 0.81, 249.66 0 M31.02 0 C92.6 1, 154.85 0.14, 249.66 0 M249.66 0 C271.79 -1.09, 279.61 10.61, 280.68 31.02 M249.66 0 C268.6 0.52, 281.36 10.95, 280.68 31.02 M280.68 31.02 C281.54 46.6, 280.84 62.26, 280.68 93.07 M280.68 31.02 C279.73 44.51, 279.82 57.2, 280.68 93.07 M280.68 93.07 C279.53 114.24, 271.65 124.65, 249.66 124.09 M280.68 93.07 C278.57 113.09, 268.07 122.16, 249.66 124.09 M249.66 124.09 C198.39 122.93, 148.74 124.92, 31.02 124.09 M249.66 124.09 C174.58 125.32, 99.22 125.44, 31.02 124.09 M31.02 124.09 C11.69 122.7, 1.06 112.67, 0 93.07 M31.02 124.09 C9.72 121.95, -1.62 115.28, 0 93.07 M0 93.07 C-0.1 74.63, -0.21 57.24, 0 31.02 M0 93.07 C0.63 73.15, -0.46 51.1, 0 31.02 M0 31.02 C-1.68 12.3, 11.64 -1.67, 31.02 0 M0 31.02 C-0.4 10.82, 10.54 -1.35, 31.02 0" stroke="#000000" stroke-width="1" fill="none"></path></g><g transform="translate(75.34107971191406 220.76966422964728) rotate(0 75 11.5)"><text x="75" y="17" font-family="Virgil, Segoe UI Emoji" font-size="20px" fill="#000000" text-anchor="middle" style="white-space: pre;" direction="ltr">组件 Component</text></g><g stroke-linecap="round" transform="translate(364.0439479953734 170.4740404503504) rotate(0 140.34107971191406 62.045623779296875)"><path d="M31.02 0 M31.02 0 C81.54 1.72, 132.43 2.81, 249.66 0 M31.02 0 C110.49 2.36, 191.97 0.78, 249.66 0 M249.66 0 C269.99 0.42, 280.85 9.17, 280.68 31.02 M249.66 0 C271 -1.08, 279.92 11.14, 280.68 31.02 M280.68 31.02 C278.36 48.09, 280.45 64.73, 280.68 93.07 M280.68 31.02 C281.02 51.45, 281.42 72.56, 280.68 93.07 M280.68 93.07 C281.49 114.43, 270.6 124.91, 249.66 124.09 M280.68 93.07 C282.03 114.13, 272.61 124.28, 249.66 124.09 M249.66 124.09 C188.01 123.84, 128.37 123.69, 31.02 124.09 M249.66 124.09 C183.99 122.07, 117.74 122.98, 31.02 124.09 M31.02 124.09 C9.06 126.02, -1.12 111.85, 0 93.07 M31.02 124.09 C12.63 122.27, 1.98 112.41, 0 93.07 M0 93.07 C0.41 78.94, 0.84 68.94, 0 31.02 M0 93.07 C-0.78 71.98, -0.57 50.86, 0 31.02 M0 31.02 C1.84 10.22, 9.88 0.38, 31.02 0 M0 31.02 C0.01 12.11, 12.03 -2.25, 31.02 0" stroke="#000000" stroke-width="1" fill="none"></path></g><g transform="translate(411.38502770728746 209.01966422964728) rotate(0 93 23)"><text x="93" y="17" font-family="Virgil, Segoe UI Emoji" font-size="20px" fill="#000000" text-anchor="middle" style="white-space: pre;" direction="ltr">componentDidMount</text><text x="93" y="40" font-family="Virgil, Segoe UI Emoji" font-size="20px" fill="#000000" text-anchor="middle" style="white-space: pre;" direction="ltr">调用映射的方法</text></g><g stroke-linecap="round" transform="translate(718.0878959907468 170.4740404503504) rotate(0 140.34107971191406 62.045623779296875)"><path d="M31.02 0 M31.02 0 C83.76 -1.22, 136.95 -2.29, 249.66 0 M31.02 0 C95.36 -1.09, 160.97 0.02, 249.66 0 M249.66 0 C271.14 -0.31, 279.55 11.91, 280.68 31.02 M249.66 0 C272.11 2.01, 282.79 11.05, 280.68 31.02 M280.68 31.02 C281.21 48.39, 281.11 69.28, 280.68 93.07 M280.68 31.02 C281.67 52.26, 281.92 74.89, 280.68 93.07 M280.68 93.07 C282.46 113.16, 268.74 125.67, 249.66 124.09 M280.68 93.07 C282.76 112.37, 272.53 122.79, 249.66 124.09 M249.66 124.09 C185.75 122.19, 120.14 121.59, 31.02 124.09 M249.66 124.09 C196.34 122.23, 141.14 122.29, 31.02 124.09 M31.02 124.09 C9.18 123.99, -0.09 112.9, 0 93.07 M31.02 124.09 C8.23 121.89, 1.93 113.28, 0 93.07 M0 93.07 C-1.03 75.42, 1.37 57.12, 0 31.02 M0 93.07 C0.72 74.53, 0.98 58.59, 0 31.02 M0 31.02 C0.91 10.26, 11.16 0.59, 31.02 0 M0 31.02 C1.08 10.37, 9.04 2.17, 31.02 0" stroke="#000000" stroke-width="1" fill="none"></path></g><g transform="translate(776.9289757026609 220.76966422964728) rotate(0 81.5 11.5)"><text x="81.5" y="17" font-family="Virgil, Segoe UI Emoji" font-size="20px" fill="#000000" text-anchor="middle" style="white-space: pre;" direction="ltr">dispatch actions</text></g><g stroke-linecap="round" transform="translate(1072.1318439861202 170.4740404503504) rotate(0 140.34107971191406 62.045623779296875)"><path d="M31.02 0 M31.02 0 C112.3 1.6, 191.02 1.27, 249.66 0 M31.02 0 C87.24 0.39, 143.76 0.33, 249.66 0 M249.66 0 C269 -0.86, 282.16 10.51, 280.68 31.02 M249.66 0 C272.52 0.68, 282.94 10.96, 280.68 31.02 M280.68 31.02 C281.75 51.35, 279.51 70.52, 280.68 93.07 M280.68 31.02 C281.48 49.26, 281.66 68.14, 280.68 93.07 M280.68 93.07 C279.79 114.24, 271.85 122.57, 249.66 124.09 M280.68 93.07 C279.72 115.09, 271.77 126.1, 249.66 124.09 M249.66 124.09 C174.76 125.45, 102.22 124.7, 31.02 124.09 M249.66 124.09 C199.32 124.1, 149.91 122.97, 31.02 124.09 M31.02 124.09 C10.26 122.98, -1.33 112.11, 0 93.07 M31.02 124.09 C9.69 124.21, -2.03 115.68, 0 93.07 M0 93.07 C1.98 75.59, 1.7 55.06, 0 31.02 M0 93.07 C-0.74 70.68, 0.38 46.57, 0 31.02 M0 31.02 C0.21 11.88, 11.69 -1.81, 31.02 0 M0 31.02 C-1.2 11.94, 12.19 -1.85, 31.02 0" stroke="#000000" stroke-width="1" fill="none"></path></g><g transform="translate(1115.9729236980343 226.51966422964728) rotate(0 96.5 11.5)"><text x="96.5" y="17" font-family="Virgil, Segoe UI Emoji" font-size="20px" fill="#000000" text-anchor="middle" style="white-space: pre;" direction="ltr">reducer 接收 action</text></g><g stroke-linecap="round" transform="translate(1426.1757919814936 170.4740404503504) rotate(0 140.34107971191406 62.045623779296875)"><path d="M31.02 0 M31.02 0 C117.05 1.26, 202.57 0.37, 249.66 0 M31.02 0 C107.02 0.54, 182.81 1, 249.66 0 M249.66 0 C270.41 1.07, 278.9 10.76, 280.68 31.02 M249.66 0 C268.8 2.06, 280.48 9.45, 280.68 31.02 M280.68 31.02 C279.12 43.27, 278.86 59.51, 280.68 93.07 M280.68 31.02 C280.12 43.69, 280.12 57.66, 280.68 93.07 M280.68 93.07 C280.66 115.33, 269.47 124.76, 249.66 124.09 M280.68 93.07 C281.13 114.41, 268.83 125.39, 249.66 124.09 M249.66 124.09 C194.21 122.06, 137.87 124.48, 31.02 124.09 M249.66 124.09 C193.84 126.45, 138.53 124.93, 31.02 124.09 M31.02 124.09 C9.32 125.49, -1.6 111.94, 0 93.07 M31.02 124.09 C10.15 124.81, 0.03 116.02, 0 93.07 M0 93.07 C-0.71 74.32, 0.25 58.64, 0 31.02 M0 93.07 C1.04 79.17, 0.85 65.36, 0 31.02 M0 31.02 C-1.73 11.54, 10.7 0.6, 31.02 0 M0 31.02 C1 9.2, 12.28 1.01, 31.02 0" stroke="#000000" stroke-width="1" fill="none"></path></g><g transform="translate(1489.0168716934077 209.01966422964728) rotate(0 77.5 23)"><text x="77.5" y="17" font-family="Virgil, Segoe UI Emoji" font-size="20px" fill="#000000" text-anchor="middle" style="white-space: pre;" direction="ltr">更新 Store 中的</text><text x="77.5" y="40" font-family="Virgil, Segoe UI Emoji" font-size="20px" fill="#000000" text-anchor="middle" style="white-space: pre;" direction="ltr">state</text></g><g stroke-linecap="round" transform="translate(889.8741040371567 383.7276273386801) rotate(0 140.34107971191406 62.045623779296875)"><path d="M31.02 0 M31.02 0 C93.58 0.85, 154.6 -0.02, 249.66 0 M31.02 0 C99.47 2.12, 170.12 1.98, 249.66 0 M249.66 0 C271.09 0.84, 280.35 11.83, 280.68 31.02 M249.66 0 C272.06 1.8, 279.74 8.31, 280.68 31.02 M280.68 31.02 C280.29 46.34, 279.77 60.91, 280.68 93.07 M280.68 31.02 C282.01 54.47, 280.48 76.04, 280.68 93.07 M280.68 93.07 C280.08 113.06, 269.23 124.44, 249.66 124.09 M280.68 93.07 C278.61 115.73, 270.15 122.18, 249.66 124.09 M249.66 124.09 C166.68 124.48, 81.01 125.28, 31.02 124.09 M249.66 124.09 C170.95 123.59, 90.03 123.98, 31.02 124.09 M31.02 124.09 C10.13 122.9, -0.43 113.91, 0 93.07 M31.02 124.09 C12.47 121.9, -2.28 112.51, 0 93.07 M0 93.07 C-0.18 76.66, -1.67 65.02, 0 31.02 M0 93.07 C-0.34 73.53, -0.6 52.96, 0 31.02 M0 31.02 C-1.16 10.09, 8.66 0.69, 31.02 0 M0 31.02 C-0.95 8.45, 9.18 -2.13, 31.02 0" stroke="#000000" stroke-width="1" fill="none"></path></g><g transform="translate(949.2151837490708 434.023251117977) rotate(0 81 11.5)"><text x="81" y="17" font-family="Virgil, Segoe UI Emoji" font-size="20px" fill="#000000" text-anchor="middle" style="white-space: pre;" direction="ltr">发送异步网络请求</text></g><g stroke-linecap="round"><g transform="translate(1035.852096171498 381.26853427475305) rotate(0 -1.3376035696273902 -77.24875508113632)"><path d="M-0.5 -0.98 C-1.02 -26.99, -3.68 -129.93, -4.12 -155.61 M1.44 1.11 C1.41 -24.82, -0.86 -128.79, -1.72 -154.66" stroke="#000000" stroke-width="1" fill="none"></path></g><g transform="translate(1035.852096171498 381.26853427475305) rotate(0 -1.3376035696273902 -77.24875508113632)"><path d="M7.64 -127.75 C4.95 -132.19, 3.47 -138.88, -2.95 -154.87 M8.96 -127.12 C4.86 -136.08, 0.33 -145.67, -0.73 -154.46" stroke="#000000" stroke-width="1" fill="none"></path></g><g transform="translate(1035.852096171498 381.26853427475305) rotate(0 -1.3376035696273902 -77.24875508113632)"><path d="M-12.88 -127.21 C-11.14 -131.69, -8.2 -138.49, -2.95 -154.87 M-11.55 -126.58 C-8.39 -135.82, -5.64 -145.6, -0.73 -154.46" stroke="#000000" stroke-width="1" fill="none"></path></g></g><mask></mask><g stroke-linecap="round"><g transform="translate(293.17781442812986 228.31041631959124) rotate(0 33.717439445392074 -0.8195009165886802)"><path d="M-0.13 -0.22 C11.28 -0.55, 57.67 -1.41, 69.1 -1.32 M-1.66 -1.38 C9.52 -1.66, 55.94 -0.28, 68.02 -0.33" stroke="#000000" stroke-width="1" fill="none"></path></g><g transform="translate(293.17781442812986 228.31041631959124) rotate(0 33.717439445392074 -0.8195009165886802)"><path d="M39.32 9.11 C47.76 4.59, 60.41 1.02, 66.85 -2.21 M39.41 10.12 C46.23 7.42, 54.94 3.47, 68 -0.08" stroke="#000000" stroke-width="1" fill="none"></path></g><g transform="translate(293.17781442812986 228.31041631959124) rotate(0 33.717439445392074 -0.8195009165886802)"><path d="M39.61 -11.41 C48.06 -8.78, 60.62 -5.19, 66.85 -2.21 M39.7 -10.4 C46.55 -7.84, 55.18 -6.52, 68 -0.08" stroke="#000000" stroke-width="1" fill="none"></path></g></g><mask></mask><g stroke-linecap="round"><g transform="translate(644.4230320000164 227.6021310413414) rotate(0 34.24759674050364 -0.2885020601357269)"><path d="M-0.78 -1.18 C10.6 -1.07, 57.53 0.12, 69.27 0.38 M1.02 0.82 C12.14 0.6, 56.94 -1, 68.28 -1.4" stroke="#000000" stroke-width="1" fill="none"></path></g><g transform="translate(644.4230320000164 227.6021310413414) rotate(0 34.24759674050364 -0.2885020601357269)"><path d="M38.51 9.72 C52.27 6.24, 63.04 0.46, 69.59 -1.31 M40.47 8.93 C47.39 7.58, 54.62 3.33, 67.79 -2.15" stroke="#000000" stroke-width="1" fill="none"></path></g><g transform="translate(644.4230320000164 227.6021310413414) rotate(0 34.24759674050364 -0.2885020601357269)"><path d="M37.79 -10.79 C51.79 -6.37, 62.84 -4.27, 69.59 -1.31 M39.75 -11.58 C46.81 -7.79, 54.22 -6.89, 67.79 -2.15" stroke="#000000" stroke-width="1" fill="none"></path></g></g><mask></mask><g stroke-linecap="round"><g transform="translate(1000.7960950488894 227.65632548728274) rotate(0 33.62859516743083 0.08754572804735972)"><path d="M-0.23 -0.97 C11.14 -1.07, 57.41 -0.57, 69.07 -0.5 M-1.82 1.14 C9.31 1.22, 56.15 1, 67.98 0.91" stroke="#000000" stroke-width="1" fill="none"></path></g><g transform="translate(1000.7960950488894 227.65632548728274) rotate(0 33.62859516743083 0.08754572804735972)"><path d="M38.23 10.87 C49.8 8.18, 60.08 2.41, 69.35 0.58 M40.65 11.62 C47.72 8.15, 53.87 6.73, 68.68 1.55" stroke="#000000" stroke-width="1" fill="none"></path></g><g transform="translate(1000.7960950488894 227.65632548728274) rotate(0 33.62859516743083 0.08754572804735972)"><path d="M38.12 -9.65 C49.75 -4.78, 60.06 -3, 69.35 0.58 M40.53 -8.9 C47.58 -7.16, 53.75 -3.37, 68.68 1.55" stroke="#000000" stroke-width="1" fill="none"></path></g></g><mask></mask><g stroke-linecap="round"><g transform="translate(1353.179795921962 230.54947359120246) rotate(0 35.03683162905725 0.6553195767043576)"><path d="M-0.42 0.88 C11.37 0.83, 58.92 -0.15, 70.49 -0.15 M1.57 0.29 C13.32 0.44, 59.05 1.64, 70.14 1.44" stroke="#000000" stroke-width="1" fill="none"></path></g><g transform="translate(1353.179795921962 230.54947359120246) rotate(0 35.03683162905725 0.6553195767043576)"><path d="M43.33 13.39 C49.98 8.24, 59.61 5.99, 70.89 2.23 M41.09 11.63 C51.45 8.27, 62.85 4.66, 69.51 1.12" stroke="#000000" stroke-width="1" fill="none"></path></g><g transform="translate(1353.179795921962 230.54947359120246) rotate(0 35.03683162905725 0.6553195767043576)"><path d="M43.49 -7.13 C50.12 -6.53, 59.71 -3.02, 70.89 2.23 M41.25 -8.89 C51.47 -4.64, 62.82 -0.65, 69.51 1.12" stroke="#000000" stroke-width="1" fill="none"></path></g></g><mask></mask><g stroke-linecap="round" transform="translate(679.1804560205458 10) rotate(0 522.2271836551123 282.801146037457)"><path d="M32 0 M32 0 C403.11 -2.75, 774.59 -2.78, 1012.45 0 M32 0 C293.11 -2.24, 554.45 -2.67, 1012.45 0 M1012.45 0 C1033.29 -1.47, 1046.18 11.71, 1044.45 32 M1012.45 0 C1035.2 -0.59, 1042.25 12.55, 1044.45 32 M1044.45 32 C1046.78 198.96, 1046.12 365.88, 1044.45 533.6 M1044.45 32 C1042.74 198.96, 1043.1 365.07, 1044.45 533.6 M1044.45 533.6 C1044.44 554, 1032.83 563.89, 1012.45 565.6 M1044.45 533.6 C1042.76 556.99, 1035.53 566.24, 1012.45 565.6 M1012.45 565.6 C792.65 562.13, 571.72 562, 32 565.6 M1012.45 565.6 C764.37 564.71, 516.53 564.54, 32 565.6 M32 565.6 C11.27 566.25, -1.09 554.55, 0 533.6 M32 565.6 C11.29 564.29, -0.82 554.8, 0 533.6 M0 533.6 C-0.37 347.58, -0.26 161.56, 0 32 M0 533.6 C0.25 425.48, 0.55 317.44, 0 32 M0 32 C-0.84 10.48, 11.98 1.86, 32 0 M0 32 C0 8.68, 12.31 -1.88, 32 0" stroke="#000000" stroke-width="1" fill="none"></path></g><g transform="translate(1145.8952557250013 48.84968999967862) rotate(0 77 20)"><text x="0" y="30" font-family="Virgil, Segoe UI Emoji" font-size="28px" fill="#000000" text-anchor="start" style="white-space: pre;" direction="ltr">Redux 内部</text></g></svg>